<svg width="100" height="100" xmlns="http://www.w3.org/2000/svg" xmlns:svg="http://www.w3.org/2000/svg">
<title>Ruler</title>

<g>
<title>Layer 1</title>
<g id="svg_60">
<path fill="black" id="svg_51" d="m26.142326,99.258179l0,0c-0.903885,0 -1.772888,-0.357918 -2.412872,-0.997902l-21.98436,-21.990417c-1.333076,-1.333069 -1.333076,-3.492691 0,-4.825768l69.703583,-69.700527c1.333069,-1.333074 3.492661,-1.333074 4.825745,0l21.984344,21.984352c1.333084,1.33308 1.333084,3.492687 0,4.825764l-69.703552,69.705086c-0.639999,0.639984 -1.509003,0.999413 -2.412888,0.999413zm-17.1586,-25.401192l17.1586,17.161613l64.877808,-64.879318l-17.158585,-17.158593l-64.877823,64.876298z"/>
<path fill="black" id="svg_52" d="m48.654457,76.025696c-0.87355,0 -1.74559,-0.335167 -2.412872,-1.000946l-10.992188,-10.992188c-1.333069,-1.333069 -1.333069,-3.492676 0,-4.825756s3.492691,-1.333065 4.82576,0l10.992172,10.992184c1.333084,1.333061 1.333084,3.492691 0,4.82576c-0.667297,0.665779 -1.537811,1.000946 -2.412872,1.000946z"/>
<path id="svg_53" d="m83.50547,41.176178c-0.875061,0 -1.745575,-0.333649 -2.412872,-0.999428l-5.491547,-5.49305c-1.333069,-1.333076 -1.333069,-3.492687 0,-4.825764s3.492706,-1.333071 4.825775,0l5.491547,5.491539c1.333069,1.333073 1.333069,3.492683 0,4.82576c-0.665802,0.667294 -1.537811,1.000942 -2.412903,1.000942z"/>
<path id="svg_54" d="m71.882393,52.781059c-0.875061,0 -1.745575,-0.333656 -2.412872,-0.999428l-5.491531,-5.491539c-1.333084,-1.33308 -1.333084,-3.492687 0,-4.825768s3.492691,-1.333073 4.82576,0l5.491547,5.491543c1.333069,1.333076 1.333069,3.49268 0,4.825764c-0.665802,0.665771 -1.537811,0.999428 -2.412903,0.999428z"/>
<path fill="black" id="svg_55" d="m60.268425,64.396545c-0.875061,0 -1.74559,-0.332123 -2.412872,-0.99791l-5.491547,-5.491531c-1.333069,-1.333076 -1.333069,-3.491177 0,-4.824249s3.492691,-1.333076 4.82576,0l5.491547,5.490025c1.333069,1.333069 1.333069,3.492687 0,4.825756c-0.667297,0.665787 -1.537811,0.99791 -2.412888,0.99791z"/>
<path id="svg_56" d="m48.654457,76.025696c-0.87355,0 -1.74559,-0.335167 -2.412872,-1.000946l-5.491547,-5.491539c-1.333069,-1.333076 -1.333069,-3.492691 0,-4.825768s3.492676,-1.333069 4.82576,0l5.491531,5.491547c1.333084,1.333061 1.333084,3.492691 0,4.82576c-0.667297,0.665779 -1.537811,1.000946 -2.412872,1.000946z"/>
<path fill="black" id="svg_57" d="m37.03138,87.630554c-0.87355,0 -1.745575,-0.335159 -2.412888,-1.000938l-5.491531,-5.491539c-1.333084,-1.333069 -1.333084,-3.492699 0,-4.82576s3.492676,-1.333069 4.82576,0l5.491531,5.491547c1.333084,1.333069 1.333084,3.492676 0,4.825752c-0.667297,0.667313 -1.540833,1.000938 -2.412872,1.000938z"/>
<path id="svg_58" d="m71.882393,52.781059c-0.875061,0 -1.745575,-0.333656 -2.412872,-0.999428l-10.992172,-10.992184c-1.333084,-1.333069 -1.333084,-3.49268 0,-4.825756s3.492691,-1.333073 4.82576,0l10.992188,10.992176c1.333069,1.333076 1.333069,3.49268 0,4.825764c-0.665802,0.665771 -1.537811,0.999428 -2.412903,0.999428z"/>
</g>
</g>
</svg>